<svg width="342" height="233" viewBox="0 0 342 233" fill="none" xmlns="http://www.w3.org/2000/svg">
<g clip-path="url(#clip0_19099_25153)">
<rect width="342" height="233" rx="8" fill="#81D2FC"/>
<path d="M211 0H0V233H157.5L211 0Z" fill="#E1F5FF"/>
<path d="M21.928 42.24C20.776 42.24 19.7947 41.9893 18.984 41.488C18.1733 40.9813 17.552 40.2773 17.12 39.376C16.6933 38.4747 16.48 37.4293 16.48 36.24C16.48 35.0507 16.6933 34.0053 17.12 33.104C17.552 32.2027 18.1733 31.5013 18.984 31C19.7947 30.4933 20.776 30.24 21.928 30.24C23.0747 30.24 24.0533 30.4933 24.864 31C25.68 31.5013 26.3013 32.2027 26.728 33.104C27.1547 34.0053 27.368 35.0507 27.368 36.24C27.368 37.4293 27.1547 38.4747 26.728 39.376C26.3013 40.2773 25.68 40.9813 24.864 41.488C24.0533 41.9893 23.0747 42.24 21.928 42.24ZM21.928 40.648C22.744 40.6587 23.4213 40.48 23.96 40.112C24.504 39.7387 24.912 39.2213 25.184 38.56C25.456 37.8933 25.592 37.12 25.592 36.24C25.592 35.36 25.456 34.592 25.184 33.936C24.912 33.2747 24.504 32.76 23.96 32.392C23.4213 32.024 22.744 31.8373 21.928 31.832C21.112 31.8213 20.432 32 19.888 32.368C19.3493 32.736 18.944 33.2533 18.672 33.92C18.4 34.5867 18.2613 35.36 18.256 36.24C18.2507 37.12 18.384 37.8907 18.656 38.552C18.928 39.208 19.336 39.72 19.88 40.088C20.4293 40.456 21.112 40.6427 21.928 40.648ZM33.0198 42.24C32.1931 42.24 31.4998 42.04 30.9398 41.64C30.3798 41.2347 29.9558 40.688 29.6678 40C29.3798 39.312 29.2358 38.536 29.2358 37.672C29.2358 36.808 29.3771 36.032 29.6598 35.344C29.9478 34.656 30.3691 34.1147 30.9238 33.72C31.4838 33.32 32.1718 33.12 32.9878 33.12C33.7984 33.12 34.4971 33.32 35.0838 33.72C35.6758 34.1147 36.1318 34.656 36.4518 35.344C36.7718 36.0267 36.9318 36.8027 36.9318 37.672C36.9318 38.536 36.7718 39.3147 36.4518 40.008C36.1371 40.696 35.6864 41.24 35.0998 41.64C34.5184 42.04 33.8251 42.24 33.0198 42.24ZM28.9558 45.84V33.36H30.4438V39.576H30.6358V45.84H28.9558ZM32.7878 40.728C33.3211 40.728 33.7611 40.592 34.1078 40.32C34.4598 40.048 34.7211 39.6827 34.8918 39.224C35.0678 38.76 35.1558 38.2427 35.1558 37.672C35.1558 37.1067 35.0678 36.5947 34.8918 36.136C34.7211 35.6773 34.4571 35.312 34.0998 35.04C33.7424 34.768 33.2864 34.632 32.7318 34.632C32.2091 34.632 31.7771 34.76 31.4358 35.016C31.0998 35.272 30.8491 35.6293 30.6838 36.088C30.5238 36.5467 30.4438 37.0747 30.4438 37.672C30.4438 38.2693 30.5238 38.7973 30.6838 39.256C30.8438 39.7147 31.0971 40.0747 31.4438 40.336C31.7904 40.5973 32.2384 40.728 32.7878 40.728ZM42.5301 42.24C41.6715 42.24 40.9168 42.0533 40.2661 41.68C39.6208 41.3013 39.1168 40.776 38.7541 40.104C38.3968 39.4267 38.2181 38.6427 38.2181 37.752C38.2181 36.808 38.3941 35.9893 38.7461 35.296C39.1035 34.6027 39.5995 34.0667 40.2341 33.688C40.8688 33.3093 41.6075 33.12 42.4501 33.12C43.3301 33.12 44.0795 33.3253 44.6981 33.736C45.3168 34.1413 45.7781 34.72 46.0821 35.472C46.3915 36.224 46.5141 37.1173 46.4501 38.152H44.7781V37.544C44.7675 36.5413 44.5755 35.8 44.2021 35.32C43.8341 34.84 43.2715 34.6 42.5141 34.6C41.6768 34.6 41.0475 34.864 40.6261 35.392C40.2048 35.92 39.9941 36.6827 39.9941 37.68C39.9941 38.6293 40.2048 39.3653 40.6261 39.888C41.0475 40.4053 41.6555 40.664 42.4501 40.664C42.9728 40.664 43.4235 40.5467 43.8021 40.312C44.1861 40.072 44.4848 39.7307 44.6981 39.288L46.3381 39.808C46.0021 40.5813 45.4928 41.1813 44.8101 41.608C44.1275 42.0293 43.3675 42.24 42.5301 42.24ZM39.4501 38.152V36.848H45.6181V38.152H39.4501ZM54.0746 42V37.752C54.0746 37.416 54.0453 37.072 53.9866 36.72C53.9333 36.3627 53.8266 36.032 53.6666 35.728C53.512 35.424 53.2906 35.1787 53.0026 34.992C52.72 34.8053 52.3493 34.712 51.8906 34.712C51.592 34.712 51.3093 34.7627 51.0426 34.864C50.776 34.96 50.5413 35.1173 50.3386 35.336C50.1413 35.5547 49.984 35.8427 49.8666 36.2C49.7546 36.5573 49.6986 36.992 49.6986 37.504L48.6586 37.112C48.6586 36.328 48.8053 35.6373 49.0986 35.04C49.392 34.4373 49.8133 33.968 50.3626 33.632C50.912 33.296 51.576 33.128 52.3546 33.128C52.952 33.128 53.4533 33.224 53.8586 33.416C54.264 33.608 54.592 33.8613 54.8426 34.176C55.0986 34.4853 55.2933 34.824 55.4266 35.192C55.56 35.56 55.6506 35.92 55.6986 36.272C55.7466 36.624 55.7706 36.9333 55.7706 37.2V42H54.0746ZM48.0026 42V33.36H49.4986V35.856H49.6986V42H48.0026ZM63.4975 42.24C62.8575 42.24 62.3215 42.1227 61.8895 41.888C61.4575 41.648 61.1295 41.3333 60.9055 40.944C60.6868 40.5493 60.5775 40.1173 60.5775 39.648C60.5775 39.2107 60.6548 38.8267 60.8095 38.496C60.9642 38.1653 61.1935 37.8853 61.4975 37.656C61.8015 37.4213 62.1748 37.232 62.6175 37.088C63.0015 36.976 63.4362 36.8773 63.9215 36.792C64.4068 36.7067 64.9162 36.6267 65.4495 36.552C65.9882 36.4773 66.5215 36.4027 67.0495 36.328L66.4415 36.664C66.4522 35.9867 66.3082 35.4853 66.0095 35.16C65.7162 34.8293 65.2095 34.664 64.4895 34.664C64.0362 34.664 63.6202 34.7707 63.2415 34.984C62.8628 35.192 62.5988 35.5387 62.4495 36.024L60.8895 35.544C61.1028 34.8027 61.5082 34.2133 62.1055 33.776C62.7082 33.3387 63.5082 33.12 64.5055 33.12C65.2788 33.12 65.9508 33.2533 66.5215 33.52C67.0975 33.7813 67.5188 34.1973 67.7855 34.768C67.9242 35.0507 68.0095 35.3493 68.0415 35.664C68.0735 35.9787 68.0895 36.3173 68.0895 36.68V42H66.6095V40.024L66.8975 40.28C66.5402 40.9413 66.0842 41.4347 65.5295 41.76C64.9802 42.08 64.3028 42.24 63.4975 42.24ZM63.7935 40.872C64.2682 40.872 64.6762 40.7893 65.0175 40.624C65.3588 40.4533 65.6335 40.2373 65.8415 39.976C66.0495 39.7147 66.1855 39.4427 66.2495 39.16C66.3402 38.904 66.3908 38.616 66.4015 38.296C66.4175 37.976 66.4255 37.72 66.4255 37.528L66.9695 37.728C66.4415 37.808 65.9615 37.88 65.5295 37.944C65.0975 38.008 64.7055 38.072 64.3535 38.136C64.0068 38.1947 63.6975 38.2667 63.4255 38.352C63.1962 38.432 62.9908 38.528 62.8095 38.64C62.6335 38.752 62.4922 38.888 62.3855 39.048C62.2842 39.208 62.2335 39.4027 62.2335 39.632C62.2335 39.856 62.2895 40.064 62.4015 40.256C62.5135 40.4427 62.6842 40.592 62.9135 40.704C63.1428 40.816 63.4362 40.872 63.7935 40.872ZM76.2309 42V37.752C76.2309 37.416 76.2015 37.072 76.1429 36.72C76.0895 36.3627 75.9829 36.032 75.8229 35.728C75.6682 35.424 75.4469 35.1787 75.1589 34.992C74.8762 34.8053 74.5055 34.712 74.0469 34.712C73.7482 34.712 73.4655 34.7627 73.1989 34.864C72.9322 34.96 72.6975 35.1173 72.4949 35.336C72.2975 35.5547 72.1402 35.8427 72.0229 36.2C71.9109 36.5573 71.8549 36.992 71.8549 37.504L70.8149 37.112C70.8149 36.328 70.9615 35.6373 71.2549 35.04C71.5482 34.4373 71.9695 33.968 72.5189 33.632C73.0682 33.296 73.7322 33.128 74.5109 33.128C75.1082 33.128 75.6095 33.224 76.0149 33.416C76.4202 33.608 76.7482 33.8613 76.9989 34.176C77.2549 34.4853 77.4495 34.824 77.5829 35.192C77.7162 35.56 77.8069 35.92 77.8549 36.272C77.9029 36.624 77.9269 36.9333 77.9269 37.2V42H76.2309ZM70.1589 42V33.36H71.6549V35.856H71.8549V42H70.1589ZM85.6538 42.24C85.0138 42.24 84.4778 42.1227 84.0458 41.888C83.6138 41.648 83.2858 41.3333 83.0618 40.944C82.8431 40.5493 82.7338 40.1173 82.7338 39.648C82.7338 39.2107 82.8111 38.8267 82.9658 38.496C83.1204 38.1653 83.3498 37.8853 83.6538 37.656C83.9578 37.4213 84.3311 37.232 84.7738 37.088C85.1578 36.976 85.5924 36.8773 86.0778 36.792C86.5631 36.7067 87.0724 36.6267 87.6058 36.552C88.1444 36.4773 88.6778 36.4027 89.2058 36.328L88.5978 36.664C88.6084 35.9867 88.4644 35.4853 88.1658 35.16C87.8724 34.8293 87.3658 34.664 86.6458 34.664C86.1924 34.664 85.7764 34.7707 85.3978 34.984C85.0191 35.192 84.7551 35.5387 84.6058 36.024L83.0458 35.544C83.2591 34.8027 83.6644 34.2133 84.2618 33.776C84.8644 33.3387 85.6644 33.12 86.6618 33.12C87.4351 33.12 88.1071 33.2533 88.6778 33.52C89.2538 33.7813 89.6751 34.1973 89.9418 34.768C90.0804 35.0507 90.1658 35.3493 90.1978 35.664C90.2298 35.9787 90.2458 36.3173 90.2458 36.68V42H88.7658V40.024L89.0538 40.28C88.6964 40.9413 88.2404 41.4347 87.6858 41.76C87.1364 42.08 86.4591 42.24 85.6538 42.24ZM85.9498 40.872C86.4244 40.872 86.8324 40.7893 87.1738 40.624C87.5151 40.4533 87.7898 40.2373 87.9978 39.976C88.2058 39.7147 88.3418 39.4427 88.4058 39.16C88.4964 38.904 88.5471 38.616 88.5578 38.296C88.5738 37.976 88.5818 37.72 88.5818 37.528L89.1258 37.728C88.5978 37.808 88.1178 37.88 87.6858 37.944C87.2538 38.008 86.8618 38.072 86.5098 38.136C86.1631 38.1947 85.8538 38.2667 85.5818 38.352C85.3524 38.432 85.1471 38.528 84.9658 38.64C84.7898 38.752 84.6484 38.888 84.5418 39.048C84.4404 39.208 84.3898 39.4027 84.3898 39.632C84.3898 39.856 84.4458 40.064 84.5578 40.256C84.6698 40.4427 84.8404 40.592 85.0698 40.704C85.2991 40.816 85.5924 40.872 85.9498 40.872ZM96.0191 42.24C95.1338 42.24 94.3818 42.0427 93.7631 41.648C93.1445 41.2533 92.6698 40.712 92.3391 40.024C92.0138 39.336 91.8485 38.5547 91.8431 37.68C91.8485 36.7893 92.0191 36.0027 92.3551 35.32C92.6911 34.632 93.1711 34.0933 93.7951 33.704C94.4191 33.3147 95.1685 33.12 96.0431 33.12C96.9871 33.12 97.7925 33.3547 98.4591 33.824C99.1311 34.2933 99.5738 34.936 99.7871 35.752L98.1231 36.232C97.9578 35.7467 97.6858 35.3707 97.3071 35.104C96.9338 34.832 96.5045 34.696 96.0191 34.696C95.4698 34.696 95.0191 34.8267 94.6671 35.088C94.3151 35.344 94.0538 35.696 93.8831 36.144C93.7125 36.592 93.6245 37.104 93.6191 37.68C93.6245 38.5707 93.8271 39.2907 94.2271 39.84C94.6325 40.3893 95.2298 40.664 96.0191 40.664C96.5578 40.664 96.9925 40.5413 97.3231 40.296C97.6591 40.0453 97.9151 39.688 98.0911 39.224L99.7871 39.624C99.5045 40.4667 99.0378 41.1147 98.3871 41.568C97.7365 42.016 96.9471 42.24 96.0191 42.24ZM104.879 42.24C103.993 42.24 103.241 42.0427 102.623 41.648C102.004 41.2533 101.529 40.712 101.199 40.024C100.873 39.336 100.708 38.5547 100.703 37.68C100.708 36.7893 100.879 36.0027 101.215 35.32C101.551 34.632 102.031 34.0933 102.655 33.704C103.279 33.3147 104.028 33.12 104.903 33.12C105.847 33.12 106.652 33.3547 107.319 33.824C107.991 34.2933 108.433 34.936 108.647 35.752L106.983 36.232C106.817 35.7467 106.545 35.3707 106.167 35.104C105.793 34.832 105.364 34.696 104.879 34.696C104.329 34.696 103.879 34.8267 103.527 35.088C103.175 35.344 102.913 35.696 102.743 36.144C102.572 36.592 102.484 37.104 102.479 37.68C102.484 38.5707 102.687 39.2907 103.087 39.84C103.492 40.3893 104.089 40.664 104.879 40.664C105.417 40.664 105.852 40.5413 106.183 40.296C106.519 40.0453 106.775 39.688 106.951 39.224L108.647 39.624C108.364 40.4667 107.897 41.1147 107.247 41.568C106.596 42.016 105.807 42.24 104.879 42.24ZM113.794 42.24C112.93 42.24 112.181 42.0453 111.546 41.656C110.911 41.2667 110.421 40.7307 110.074 40.048C109.733 39.36 109.562 38.568 109.562 37.672C109.562 36.7707 109.738 35.9787 110.09 35.296C110.442 34.608 110.935 34.0747 111.57 33.696C112.205 33.312 112.946 33.12 113.794 33.12C114.658 33.12 115.407 33.3147 116.042 33.704C116.677 34.0933 117.167 34.6293 117.514 35.312C117.861 35.9947 118.034 36.7813 118.034 37.672C118.034 38.5733 117.858 39.368 117.506 40.056C117.159 40.7387 116.669 41.2747 116.034 41.664C115.399 42.048 114.653 42.24 113.794 42.24ZM113.794 40.664C114.621 40.664 115.237 40.3867 115.642 39.832C116.053 39.272 116.258 38.552 116.258 37.672C116.258 36.7707 116.05 36.0507 115.634 35.512C115.223 34.968 114.61 34.696 113.794 34.696C113.234 34.696 112.773 34.824 112.41 35.08C112.047 35.3307 111.778 35.68 111.602 36.128C111.426 36.5707 111.338 37.0853 111.338 37.672C111.338 38.5787 111.546 39.304 111.962 39.848C112.378 40.392 112.989 40.664 113.794 40.664ZM123.048 42.232C122.451 42.232 121.949 42.136 121.544 41.944C121.139 41.752 120.808 41.5013 120.552 41.192C120.301 40.8773 120.109 40.536 119.976 40.168C119.843 39.8 119.752 39.44 119.704 39.088C119.656 38.736 119.632 38.4267 119.632 38.16V33.36H121.328V37.608C121.328 37.944 121.355 38.2907 121.408 38.648C121.467 39 121.573 39.328 121.728 39.632C121.888 39.936 122.109 40.1813 122.392 40.368C122.68 40.5547 123.053 40.648 123.512 40.648C123.811 40.648 124.093 40.6 124.36 40.504C124.627 40.4027 124.859 40.2427 125.056 40.024C125.259 39.8053 125.416 39.5173 125.528 39.16C125.645 38.8027 125.704 38.368 125.704 37.856L126.744 38.248C126.744 39.032 126.597 39.7253 126.304 40.328C126.011 40.9253 125.589 41.392 125.04 41.728C124.491 42.064 123.827 42.232 123.048 42.232ZM125.904 42V39.504H125.704V33.36H127.392V42H125.904ZM135.7 42V37.752C135.7 37.416 135.67 37.072 135.612 36.72C135.558 36.3627 135.452 36.032 135.292 35.728C135.137 35.424 134.916 35.1787 134.628 34.992C134.345 34.8053 133.974 34.712 133.516 34.712C133.217 34.712 132.934 34.7627 132.668 34.864C132.401 34.96 132.166 35.1173 131.964 35.336C131.766 35.5547 131.609 35.8427 131.492 36.2C131.38 36.5573 131.324 36.992 131.324 37.504L130.284 37.112C130.284 36.328 130.43 35.6373 130.724 35.04C131.017 34.4373 131.438 33.968 131.988 33.632C132.537 33.296 133.201 33.128 133.98 33.128C134.577 33.128 135.078 33.224 135.484 33.416C135.889 33.608 136.217 33.8613 136.468 34.176C136.724 34.4853 136.918 34.824 137.052 35.192C137.185 35.56 137.276 35.92 137.324 36.272C137.372 36.624 137.396 36.9333 137.396 37.2V42H135.7ZM129.628 42V33.36H131.124V35.856H131.324V42H129.628ZM144.423 42C143.879 42.1067 143.346 42.152 142.823 42.136C142.301 42.12 141.834 42.0187 141.423 41.832C141.013 41.6453 140.703 41.352 140.495 40.952C140.309 40.5947 140.207 40.232 140.191 39.864C140.181 39.4907 140.175 39.0693 140.175 38.6V30.96H141.855V38.52C141.855 38.8667 141.858 39.168 141.863 39.424C141.874 39.68 141.93 39.896 142.031 40.072C142.223 40.4027 142.527 40.592 142.943 40.64C143.365 40.6827 143.858 40.664 144.423 40.584V42ZM138.519 34.704V33.36H144.423V34.704H138.519ZM151.288 42L148.648 33.352L150.304 33.36L152.112 39.288L153.936 33.36H155.376L157.2 39.288L159.008 33.36H160.656L158.016 42H156.672L154.656 35.744L152.632 42H151.288ZM162.249 31.944V30.32H163.921V31.944H162.249ZM162.249 42V33.36H163.921V42H162.249ZM171.267 42C170.723 42.1067 170.19 42.152 169.667 42.136C169.144 42.12 168.678 42.0187 168.267 41.832C167.856 41.6453 167.547 41.352 167.339 40.952C167.152 40.5947 167.051 40.232 167.035 39.864C167.024 39.4907 167.019 39.0693 167.019 38.6V30.96H168.699V38.52C168.699 38.8667 168.702 39.168 168.707 39.424C168.718 39.68 168.774 39.896 168.875 40.072C169.067 40.4027 169.371 40.592 169.787 40.64C170.208 40.6827 170.702 40.664 171.267 40.584V42ZM165.363 34.704V33.36H171.267V34.704H165.363ZM179.153 42V37.752C179.153 37.416 179.123 37.072 179.065 36.72C179.011 36.3627 178.905 36.032 178.745 35.728C178.59 35.424 178.369 35.1787 178.081 34.992C177.798 34.8053 177.427 34.712 176.969 34.712C176.67 34.712 176.387 34.7627 176.121 34.864C175.854 34.96 175.619 35.1173 175.417 35.336C175.219 35.5547 175.062 35.8427 174.945 36.2C174.833 36.5573 174.777 36.992 174.777 37.504L173.737 37.112C173.737 36.328 173.883 35.6373 174.177 35.04C174.47 34.4373 174.891 33.968 175.441 33.632C175.99 33.296 176.654 33.128 177.433 33.128C178.03 33.128 178.531 33.224 178.937 33.416C179.342 33.608 179.67 33.8613 179.921 34.176C180.177 34.4853 180.371 34.824 180.505 35.192C180.638 35.56 180.729 35.92 180.777 36.272C180.825 36.624 180.849 36.9333 180.849 37.2V42H179.153ZM173.081 42V30.48H174.577V36.696H174.777V42H173.081ZM18.96 66L16.32 57.352L17.976 57.36L19.784 63.288L21.608 57.36H23.048L24.872 63.288L26.68 57.36H28.328L25.688 66H24.344L22.328 59.744L20.304 66H18.96ZM33.2801 66.24C32.4215 66.24 31.6668 66.0533 31.0161 65.68C30.3708 65.3013 29.8668 64.776 29.5041 64.104C29.1468 63.4267 28.9681 62.6427 28.9681 61.752C28.9681 60.808 29.1441 59.9893 29.4961 59.296C29.8535 58.6027 30.3495 58.0667 30.9841 57.688C31.6188 57.3093 32.3575 57.12 33.2001 57.12C34.0801 57.12 34.8295 57.3253 35.4481 57.736C36.0668 58.1413 36.5281 58.72 36.8321 59.472C37.1415 60.224 37.2641 61.1173 37.2001 62.152H35.5281V61.544C35.5175 60.5413 35.3255 59.8 34.9521 59.32C34.5841 58.84 34.0215 58.6 33.2641 58.6C32.4268 58.6 31.7975 58.864 31.3761 59.392C30.9548 59.92 30.7441 60.6827 30.7441 61.68C30.7441 62.6293 30.9548 63.3653 31.3761 63.888C31.7975 64.4053 32.4055 64.664 33.2001 64.664C33.7228 64.664 34.1735 64.5467 34.5521 64.312C34.9361 64.072 35.2348 63.7307 35.4481 63.288L37.0881 63.808C36.7521 64.5813 36.2428 65.1813 35.5601 65.608C34.8775 66.0293 34.1175 66.24 33.2801 66.24ZM30.2001 62.152V60.848H36.3681V62.152H30.2001ZM41.2788 66.24C40.6388 66.24 40.1028 66.1227 39.6708 65.888C39.2388 65.648 38.9108 65.3333 38.6868 64.944C38.4681 64.5493 38.3588 64.1173 38.3588 63.648C38.3588 63.2107 38.4361 62.8267 38.5908 62.496C38.7454 62.1653 38.9748 61.8853 39.2788 61.656C39.5828 61.4213 39.9561 61.232 40.3988 61.088C40.7828 60.976 41.2174 60.8773 41.7028 60.792C42.1881 60.7067 42.6974 60.6267 43.2308 60.552C43.7694 60.4773 44.3028 60.4027 44.8308 60.328L44.2228 60.664C44.2334 59.9867 44.0894 59.4853 43.7908 59.16C43.4974 58.8293 42.9908 58.664 42.2708 58.664C41.8174 58.664 41.4014 58.7707 41.0228 58.984C40.6441 59.192 40.3801 59.5387 40.2308 60.024L38.6708 59.544C38.8841 58.8027 39.2894 58.2133 39.8868 57.776C40.4894 57.3387 41.2894 57.12 42.2868 57.12C43.0601 57.12 43.7321 57.2533 44.3028 57.52C44.8788 57.7813 45.3001 58.1973 45.5668 58.768C45.7054 59.0507 45.7908 59.3493 45.8228 59.664C45.8548 59.9787 45.8708 60.3173 45.8708 60.68V66H44.3908V64.024L44.6788 64.28C44.3214 64.9413 43.8654 65.4347 43.3108 65.76C42.7614 66.08 42.0841 66.24 41.2788 66.24ZM41.5748 64.872C42.0494 64.872 42.4574 64.7893 42.7988 64.624C43.1401 64.4533 43.4148 64.2373 43.6228 63.976C43.8308 63.7147 43.9668 63.4427 44.0308 63.16C44.1214 62.904 44.1721 62.616 44.1828 62.296C44.1988 61.976 44.2068 61.72 44.2068 61.528L44.7508 61.728C44.2228 61.808 43.7428 61.88 43.3108 61.944C42.8788 62.008 42.4868 62.072 42.1348 62.136C41.7881 62.1947 41.4788 62.2667 41.2068 62.352C40.9774 62.432 40.7721 62.528 40.5908 62.64C40.4148 62.752 40.2734 62.888 40.1668 63.048C40.0654 63.208 40.0148 63.4027 40.0148 63.632C40.0148 63.856 40.0708 64.064 40.1828 64.256C40.2948 64.4427 40.4654 64.592 40.6948 64.704C40.9241 64.816 41.2174 64.872 41.5748 64.872ZM48.1081 66V54.24H49.7801V66H48.1081ZM57.1265 66C56.5825 66.1067 56.0492 66.152 55.5265 66.136C55.0038 66.12 54.5372 66.0187 54.1265 65.832C53.7158 65.6453 53.4065 65.352 53.1985 64.952C53.0118 64.5947 52.9105 64.232 52.8945 63.864C52.8838 63.4907 52.8785 63.0693 52.8785 62.6V54.96H54.5585V62.52C54.5585 62.8667 54.5612 63.168 54.5665 63.424C54.5772 63.68 54.6332 63.896 54.7345 64.072C54.9265 64.4027 55.2305 64.592 55.6465 64.64C56.0678 64.6827 56.5612 64.664 57.1265 64.584V66ZM51.2225 58.704V57.36H57.1265V58.704H51.2225ZM65.0121 66V61.752C65.0121 61.416 64.9828 61.072 64.9241 60.72C64.8708 60.3627 64.7641 60.032 64.6041 59.728C64.4495 59.424 64.2281 59.1787 63.9401 58.992C63.6575 58.8053 63.2868 58.712 62.8281 58.712C62.5295 58.712 62.2468 58.7627 61.9801 58.864C61.7135 58.96 61.4788 59.1173 61.2761 59.336C61.0788 59.5547 60.9215 59.8427 60.8041 60.2C60.6921 60.5573 60.6361 60.992 60.6361 61.504L59.5961 61.112C59.5961 60.328 59.7428 59.6373 60.0361 59.04C60.3295 58.4373 60.7508 57.968 61.3001 57.632C61.8495 57.296 62.5135 57.128 63.2921 57.128C63.8895 57.128 64.3908 57.224 64.7961 57.416C65.2015 57.608 65.5295 57.8613 65.7801 58.176C66.0361 58.4853 66.2308 58.824 66.3641 59.192C66.4975 59.56 66.5881 59.92 66.6361 60.272C66.6841 60.624 66.7081 60.9333 66.7081 61.2V66H65.0121ZM58.9401 66V54.48H60.4361V60.696H60.6361V66H58.9401ZM73.6719 66V63.992H68.4719V62.408L72.2159 54.48H74.1279L70.3839 62.408H73.6719V59.288H75.3679V62.408H76.5119V63.992H75.3679V66H73.6719ZM78.1125 65.992L78.1205 64.504L83.1365 60.008C83.5418 59.6507 83.8165 59.3093 83.9605 58.984C84.1098 58.6587 84.1845 58.3333 84.1845 58.008C84.1845 57.5973 84.0938 57.2293 83.9125 56.904C83.7312 56.5733 83.4805 56.312 83.1605 56.12C82.8405 55.928 82.4725 55.832 82.0565 55.832C81.6298 55.832 81.2485 55.9333 80.9125 56.136C80.5818 56.3333 80.3232 56.5973 80.1365 56.928C79.9498 57.2587 79.8592 57.616 79.8645 58H78.1525C78.1525 57.2533 78.3205 56.6 78.6565 56.04C78.9978 55.4747 79.4645 55.0347 80.0565 54.72C80.6485 54.4 81.3258 54.24 82.0885 54.24C82.8138 54.24 83.4645 54.4053 84.0405 54.736C84.6165 55.0613 85.0698 55.5093 85.4005 56.08C85.7365 56.6507 85.9045 57.3013 85.9045 58.032C85.9045 58.56 85.8352 59.008 85.6965 59.376C85.5578 59.744 85.3498 60.0853 85.0725 60.4C84.7952 60.7147 84.4485 61.056 84.0325 61.424L80.1605 64.88L79.9765 64.4H85.9045V65.992H78.1125ZM97.0903 66V61.752C97.0903 61.416 97.0609 61.072 97.0023 60.72C96.9489 60.3627 96.8423 60.032 96.6823 59.728C96.5276 59.424 96.3063 59.1787 96.0183 58.992C95.7356 58.8053 95.3649 58.712 94.9062 58.712C94.6076 58.712 94.3249 58.7627 94.0583 58.864C93.7916 58.96 93.5569 59.1173 93.3543 59.336C93.1569 59.5547 92.9996 59.8427 92.8823 60.2C92.7703 60.5573 92.7143 60.992 92.7143 61.504L91.6743 61.112C91.6743 60.328 91.8209 59.6373 92.1143 59.04C92.4076 58.4373 92.8289 57.968 93.3783 57.632C93.9276 57.296 94.5916 57.128 95.3703 57.128C95.9676 57.128 96.4689 57.224 96.8743 57.416C97.2796 57.608 97.6076 57.8613 97.8583 58.176C98.1143 58.4853 98.3089 58.824 98.4423 59.192C98.5756 59.56 98.6663 59.92 98.7143 60.272C98.7623 60.624 98.7863 60.9333 98.7863 61.2V66H97.0903ZM91.0183 66V57.36H92.5143V59.856H92.7143V66H91.0183ZM104.513 66.24C103.649 66.24 102.899 66.0453 102.265 65.656C101.63 65.2667 101.139 64.7307 100.793 64.048C100.451 63.36 100.281 62.568 100.281 61.672C100.281 60.7707 100.457 59.9787 100.809 59.296C101.161 58.608 101.654 58.0747 102.289 57.696C102.923 57.312 103.665 57.12 104.513 57.12C105.377 57.12 106.126 57.3147 106.761 57.704C107.395 58.0933 107.886 58.6293 108.233 59.312C108.579 59.9947 108.753 60.7813 108.753 61.672C108.753 62.5733 108.577 63.368 108.225 64.056C107.878 64.7387 107.387 65.2747 106.753 65.664C106.118 66.048 105.371 66.24 104.513 66.24ZM104.513 64.664C105.339 64.664 105.955 64.3867 106.361 63.832C106.771 63.272 106.977 62.552 106.977 61.672C106.977 60.7707 106.769 60.0507 106.353 59.512C105.942 58.968 105.329 58.696 104.513 58.696C103.953 58.696 103.491 58.824 103.129 59.08C102.766 59.3307 102.497 59.68 102.321 60.128C102.145 60.5707 102.057 61.0853 102.057 61.672C102.057 62.5787 102.265 63.304 102.681 63.848C103.097 64.392 103.707 64.664 104.513 64.664ZM112.038 66L109.398 57.352L111.054 57.36L112.862 63.288L114.686 57.36H116.126L117.95 63.288L119.758 57.36H121.406L118.766 66H117.422L115.406 59.744L113.382 66H112.038ZM126.834 66V57.056C126.834 56.8373 126.842 56.6053 126.858 56.36C126.874 56.1093 126.919 55.864 126.994 55.624C127.074 55.3787 127.205 55.1547 127.386 54.952C127.605 54.712 127.845 54.5413 128.106 54.44C128.367 54.3387 128.626 54.28 128.882 54.264C129.143 54.248 129.383 54.24 129.602 54.24H130.69V55.616H129.682C129.287 55.616 128.991 55.7147 128.794 55.912C128.602 56.104 128.506 56.3787 128.506 56.736V66H126.834ZM125.402 58.704V57.36H130.69V58.704H125.402ZM135.403 66.24C134.539 66.24 133.79 66.0453 133.155 65.656C132.521 65.2667 132.03 64.7307 131.683 64.048C131.342 63.36 131.171 62.568 131.171 61.672C131.171 60.7707 131.347 59.9787 131.699 59.296C132.051 58.608 132.545 58.0747 133.179 57.696C133.814 57.312 134.555 57.12 135.403 57.12C136.267 57.12 137.017 57.3147 137.651 57.704C138.286 58.0933 138.777 58.6293 139.123 59.312C139.47 59.9947 139.643 60.7813 139.643 61.672C139.643 62.5733 139.467 63.368 139.115 64.056C138.769 64.7387 138.278 65.2747 137.643 65.664C137.009 66.048 136.262 66.24 135.403 66.24ZM135.403 64.664C136.23 64.664 136.846 64.3867 137.251 63.832C137.662 63.272 137.867 62.552 137.867 61.672C137.867 60.7707 137.659 60.0507 137.243 59.512C136.833 58.968 136.219 58.696 135.403 58.696C134.843 58.696 134.382 58.824 134.019 59.08C133.657 59.3307 133.387 59.68 133.211 60.128C133.035 60.5707 132.947 61.0853 132.947 61.672C132.947 62.5787 133.155 63.304 133.571 63.848C133.987 64.392 134.598 64.664 135.403 64.664ZM141.401 66V57.36H142.889V59.456L142.681 59.184C142.788 58.9067 142.927 58.6533 143.097 58.424C143.268 58.1893 143.465 57.9973 143.689 57.848C143.908 57.688 144.151 57.5653 144.417 57.48C144.689 57.3893 144.967 57.336 145.249 57.32C145.532 57.2987 145.804 57.312 146.065 57.36V58.928C145.783 58.8533 145.468 58.832 145.121 58.864C144.78 58.896 144.465 59.0053 144.177 59.192C143.905 59.368 143.689 59.5813 143.529 59.832C143.375 60.0827 143.263 60.3627 143.193 60.672C143.124 60.976 143.089 61.2987 143.089 61.64V66H141.401ZM20.952 90.24C20.0933 90.24 19.3387 90.0533 18.688 89.68C18.0427 89.3013 17.5387 88.776 17.176 88.104C16.8187 87.4267 16.64 86.6427 16.64 85.752C16.64 84.808 16.816 83.9893 17.168 83.296C17.5253 82.6027 18.0213 82.0667 18.656 81.688C19.2907 81.3093 20.0293 81.12 20.872 81.12C21.752 81.12 22.5013 81.3253 23.12 81.736C23.7387 82.1413 24.2 82.72 24.504 83.472C24.8133 84.224 24.936 85.1173 24.872 86.152H23.2V85.544C23.1893 84.5413 22.9973 83.8 22.624 83.32C22.256 82.84 21.6933 82.6 20.936 82.6C20.0987 82.6 19.4693 82.864 19.048 83.392C18.6267 83.92 18.416 84.6827 18.416 85.68C18.416 86.6293 18.6267 87.3653 19.048 87.888C19.4693 88.4053 20.0773 88.664 20.872 88.664C21.3947 88.664 21.8453 88.5467 22.224 88.312C22.608 88.072 22.9067 87.7307 23.12 87.288L24.76 87.808C24.424 88.5813 23.9147 89.1813 23.232 89.608C22.5493 90.0293 21.7893 90.24 20.952 90.24ZM17.872 86.152V84.848H24.04V86.152H17.872ZM25.3944 90L28.6264 85.632L25.4664 81.36H27.4504L29.6024 84.328L31.7304 81.36H33.7144L30.5544 85.632L33.7944 90H31.8024L29.6024 86.936L27.3864 90H25.3944ZM38.4566 90.24C37.5713 90.24 36.8193 90.0427 36.2006 89.648C35.582 89.2533 35.1073 88.712 34.7766 88.024C34.4513 87.336 34.286 86.5547 34.2806 85.68C34.286 84.7893 34.4566 84.0027 34.7926 83.32C35.1286 82.632 35.6086 82.0933 36.2326 81.704C36.8566 81.3147 37.606 81.12 38.4806 81.12C39.4246 81.12 40.23 81.3547 40.8966 81.824C41.5686 82.2933 42.0113 82.936 42.2246 83.752L40.5606 84.232C40.3953 83.7467 40.1233 83.3707 39.7446 83.104C39.3713 82.832 38.942 82.696 38.4566 82.696C37.9073 82.696 37.4566 82.8267 37.1046 83.088C36.7526 83.344 36.4913 83.696 36.3206 84.144C36.15 84.592 36.062 85.104 36.0566 85.68C36.062 86.5707 36.2646 87.2907 36.6646 87.84C37.07 88.3893 37.6673 88.664 38.4566 88.664C38.9953 88.664 39.43 88.5413 39.7606 88.296C40.0966 88.0453 40.3526 87.688 40.5286 87.224L42.2246 87.624C41.942 88.4667 41.4753 89.1147 40.8246 89.568C40.174 90.016 39.3846 90.24 38.4566 90.24ZM43.78 90V78.24H45.452V90H43.78ZM51.1104 90.232C50.513 90.232 50.0117 90.136 49.6064 89.944C49.201 89.752 48.8704 89.5013 48.6144 89.192C48.3637 88.8773 48.1717 88.536 48.0384 88.168C47.905 87.8 47.8144 87.44 47.7664 87.088C47.7184 86.736 47.6944 86.4267 47.6944 86.16V81.36H49.3904V85.608C49.3904 85.944 49.417 86.2907 49.4704 86.648C49.529 87 49.6357 87.328 49.7904 87.632C49.9504 87.936 50.1717 88.1813 50.4544 88.368C50.7424 88.5547 51.1157 88.648 51.5744 88.648C51.873 88.648 52.1557 88.6 52.4224 88.504C52.689 88.4027 52.921 88.2427 53.1184 88.024C53.321 87.8053 53.4784 87.5173 53.5904 87.16C53.7077 86.8027 53.7664 86.368 53.7664 85.856L54.8064 86.248C54.8064 87.032 54.6597 87.7253 54.3664 88.328C54.073 88.9253 53.6517 89.392 53.1024 89.728C52.553 90.064 51.889 90.232 51.1104 90.232ZM53.9664 90V87.504H53.7664V81.36H55.4544V90H53.9664ZM61.0021 90.232C59.9515 90.232 59.0955 90 58.4341 89.536C57.7728 89.072 57.3675 88.4187 57.2181 87.576L58.9301 87.312C59.0368 87.76 59.2821 88.1147 59.6661 88.376C60.0555 88.632 60.5381 88.76 61.1141 88.76C61.6368 88.76 62.0448 88.6533 62.3381 88.44C62.6368 88.2267 62.7861 87.9333 62.7861 87.56C62.7861 87.3413 62.7328 87.1653 62.6261 87.032C62.5248 86.8933 62.3088 86.7627 61.9781 86.64C61.6475 86.5173 61.1435 86.3653 60.4661 86.184C59.7248 85.992 59.1355 85.7867 58.6981 85.568C58.2661 85.344 57.9568 85.0853 57.7701 84.792C57.5888 84.4933 57.4981 84.1333 57.4981 83.712C57.4981 83.1893 57.6368 82.7333 57.9141 82.344C58.1915 81.9547 58.5808 81.6533 59.0821 81.44C59.5888 81.2267 60.1808 81.12 60.8581 81.12C61.5195 81.12 62.1088 81.224 62.6261 81.432C63.1435 81.64 63.5621 81.936 63.8821 82.32C64.2021 82.6987 64.3941 83.144 64.4581 83.656L62.7461 83.968C62.6875 83.552 62.4928 83.224 62.1621 82.984C61.8315 82.744 61.4021 82.6133 60.8741 82.592C60.3675 82.5707 59.9568 82.656 59.6421 82.848C59.3275 83.0347 59.1701 83.2933 59.1701 83.624C59.1701 83.816 59.2288 83.9787 59.3461 84.112C59.4688 84.2453 59.7035 84.3733 60.0501 84.496C60.3968 84.6187 60.9088 84.7653 61.5861 84.936C62.3115 85.1227 62.8875 85.3307 63.3141 85.56C63.7408 85.784 64.0448 86.0533 64.2261 86.368C64.4128 86.6773 64.5061 87.0533 64.5061 87.496C64.5061 88.3493 64.1941 89.0187 63.5701 89.504C62.9515 89.9893 62.0955 90.232 61.0021 90.232ZM66.4363 79.944V78.32H68.1083V79.944H66.4363ZM66.4363 90V81.36H68.1083V90H66.4363ZM72.8466 90L69.7106 81.36H71.3986L73.6946 87.904L75.9906 81.36H77.6786L74.5426 90H72.8466ZM82.6395 90.24C81.7808 90.24 81.0262 90.0533 80.3755 89.68C79.7302 89.3013 79.2262 88.776 78.8635 88.104C78.5062 87.4267 78.3275 86.6427 78.3275 85.752C78.3275 84.808 78.5035 83.9893 78.8555 83.296C79.2128 82.6027 79.7088 82.0667 80.3435 81.688C80.9782 81.3093 81.7168 81.12 82.5595 81.12C83.4395 81.12 84.1888 81.3253 84.8075 81.736C85.4262 82.1413 85.8875 82.72 86.1915 83.472C86.5008 84.224 86.6235 85.1173 86.5595 86.152H84.8875V85.544C84.8768 84.5413 84.6848 83.8 84.3115 83.32C83.9435 82.84 83.3808 82.6 82.6235 82.6C81.7862 82.6 81.1568 82.864 80.7355 83.392C80.3142 83.92 80.1035 84.6827 80.1035 85.68C80.1035 86.6293 80.3142 87.3653 80.7355 87.888C81.1568 88.4053 81.7648 88.664 82.5595 88.664C83.0822 88.664 83.5328 88.5467 83.9115 88.312C84.2955 88.072 84.5942 87.7307 84.8075 87.288L86.4475 87.808C86.1115 88.5813 85.6022 89.1813 84.9195 89.608C84.2368 90.0293 83.4768 90.24 82.6395 90.24ZM79.5595 86.152V84.848H85.7275V86.152H79.5595ZM94.9895 90.24C94.1842 90.24 93.4882 90.04 92.9015 89.64C92.3202 89.24 91.8695 88.696 91.5495 88.008C91.2348 87.3147 91.0775 86.536 91.0775 85.672C91.0775 84.8027 91.2375 84.0267 91.5575 83.344C91.8775 82.656 92.3308 82.1147 92.9175 81.72C93.5095 81.32 94.2108 81.12 95.0215 81.12C95.8375 81.12 96.5228 81.32 97.0775 81.72C97.6375 82.1147 98.0588 82.656 98.3415 83.344C98.6295 84.032 98.7735 84.808 98.7735 85.672C98.7735 86.536 98.6295 87.312 98.3415 88C98.0535 88.688 97.6295 89.2347 97.0695 89.64C96.5095 90.04 95.8162 90.24 94.9895 90.24ZM95.2215 88.728C95.7708 88.728 96.2188 88.5973 96.5655 88.336C96.9122 88.0747 97.1655 87.7147 97.3255 87.256C97.4855 86.7973 97.5655 86.2693 97.5655 85.672C97.5655 85.0747 97.4828 84.5467 97.3175 84.088C97.1575 83.6293 96.9068 83.272 96.5655 83.016C96.2295 82.76 95.8002 82.632 95.2775 82.632C94.7228 82.632 94.2668 82.768 93.9095 83.04C93.5522 83.312 93.2855 83.6773 93.1095 84.136C92.9388 84.5947 92.8535 85.1067 92.8535 85.672C92.8535 86.2427 92.9388 86.76 93.1095 87.224C93.2855 87.6827 93.5468 88.048 93.8935 88.32C94.2455 88.592 94.6882 88.728 95.2215 88.728ZM97.5655 90V83.784H97.3735V78.48H99.0535V90H97.5655ZM101.452 79.944V78.32H103.124V79.944H101.452ZM101.452 90V81.36H103.124V90H101.452ZM108.83 90.232C107.78 90.232 106.924 90 106.262 89.536C105.601 89.072 105.196 88.4187 105.046 87.576L106.758 87.312C106.865 87.76 107.11 88.1147 107.494 88.376C107.884 88.632 108.366 88.76 108.942 88.76C109.465 88.76 109.873 88.6533 110.166 88.44C110.465 88.2267 110.614 87.9333 110.614 87.56C110.614 87.3413 110.561 87.1653 110.454 87.032C110.353 86.8933 110.137 86.7627 109.806 86.64C109.476 86.5173 108.972 86.3653 108.294 86.184C107.553 85.992 106.964 85.7867 106.526 85.568C106.094 85.344 105.785 85.0853 105.598 84.792C105.417 84.4933 105.326 84.1333 105.326 83.712C105.326 83.1893 105.465 82.7333 105.742 82.344C106.02 81.9547 106.409 81.6533 106.91 81.44C107.417 81.2267 108.009 81.12 108.686 81.12C109.348 81.12 109.937 81.224 110.454 81.432C110.972 81.64 111.39 81.936 111.71 82.32C112.03 82.6987 112.222 83.144 112.286 83.656L110.574 83.968C110.516 83.552 110.321 83.224 109.99 82.984C109.66 82.744 109.23 82.6133 108.702 82.592C108.196 82.5707 107.785 82.656 107.47 82.848C107.156 83.0347 106.998 83.2933 106.998 83.624C106.998 83.816 107.057 83.9787 107.174 84.112C107.297 84.2453 107.532 84.3733 107.878 84.496C108.225 84.6187 108.737 84.7653 109.414 84.936C110.14 85.1227 110.716 85.3307 111.142 85.56C111.569 85.784 111.873 86.0533 112.054 86.368C112.241 86.6773 112.334 87.0533 112.334 87.496C112.334 88.3493 112.022 89.0187 111.398 89.504C110.78 89.9893 109.924 90.232 108.83 90.232ZM117.8 90.24C116.915 90.24 116.163 90.0427 115.544 89.648C114.926 89.2533 114.451 88.712 114.12 88.024C113.795 87.336 113.63 86.5547 113.624 85.68C113.63 84.7893 113.8 84.0027 114.136 83.32C114.472 82.632 114.952 82.0933 115.576 81.704C116.2 81.3147 116.95 81.12 117.824 81.12C118.768 81.12 119.574 81.3547 120.24 81.824C120.912 82.2933 121.355 82.936 121.568 83.752L119.904 84.232C119.739 83.7467 119.467 83.3707 119.088 83.104C118.715 82.832 118.286 82.696 117.8 82.696C117.251 82.696 116.8 82.8267 116.448 83.088C116.096 83.344 115.835 83.696 115.664 84.144C115.494 84.592 115.406 85.104 115.4 85.68C115.406 86.5707 115.608 87.2907 116.008 87.84C116.414 88.3893 117.011 88.664 117.8 88.664C118.339 88.664 118.774 88.5413 119.104 88.296C119.44 88.0453 119.696 87.688 119.872 87.224L121.568 87.624C121.286 88.4667 120.819 89.1147 120.168 89.568C119.518 90.016 118.728 90.24 117.8 90.24ZM126.716 90.24C125.852 90.24 125.102 90.0453 124.468 89.656C123.833 89.2667 123.342 88.7307 122.996 88.048C122.654 87.36 122.484 86.568 122.484 85.672C122.484 84.7707 122.66 83.9787 123.012 83.296C123.364 82.608 123.857 82.0747 124.492 81.696C125.126 81.312 125.868 81.12 126.716 81.12C127.58 81.12 128.329 81.3147 128.964 81.704C129.598 82.0933 130.089 82.6293 130.436 83.312C130.782 83.9947 130.956 84.7813 130.956 85.672C130.956 86.5733 130.78 87.368 130.428 88.056C130.081 88.7387 129.59 89.2747 128.956 89.664C128.321 90.048 127.574 90.24 126.716 90.24ZM126.716 88.664C127.542 88.664 128.158 88.3867 128.564 87.832C128.974 87.272 129.18 86.552 129.18 85.672C129.18 84.7707 128.972 84.0507 128.556 83.512C128.145 82.968 127.532 82.696 126.716 82.696C126.156 82.696 125.694 82.824 125.332 83.08C124.969 83.3307 124.7 83.68 124.524 84.128C124.348 84.5707 124.26 85.0853 124.26 85.672C124.26 86.5787 124.468 87.304 124.884 87.848C125.3 88.392 125.91 88.664 126.716 88.664ZM135.97 90.232C135.372 90.232 134.871 90.136 134.466 89.944C134.06 89.752 133.73 89.5013 133.474 89.192C133.223 88.8773 133.031 88.536 132.898 88.168C132.764 87.8 132.674 87.44 132.626 87.088C132.578 86.736 132.554 86.4267 132.554 86.16V81.36H134.25V85.608C134.25 85.944 134.276 86.2907 134.33 86.648C134.388 87 134.495 87.328 134.65 87.632C134.81 87.936 135.031 88.1813 135.314 88.368C135.602 88.5547 135.975 88.648 136.434 88.648C136.732 88.648 137.015 88.6 137.282 88.504C137.548 88.4027 137.78 88.2427 137.978 88.024C138.18 87.8053 138.338 87.5173 138.45 87.16C138.567 86.8027 138.626 86.368 138.626 85.856L139.666 86.248C139.666 87.032 139.519 87.7253 139.226 88.328C138.932 88.9253 138.511 89.392 137.962 89.728C137.412 90.064 136.748 90.232 135.97 90.232ZM138.826 90V87.504H138.626V81.36H140.314V90H138.826ZM148.622 90V85.752C148.622 85.416 148.592 85.072 148.534 84.72C148.48 84.3627 148.374 84.032 148.214 83.728C148.059 83.424 147.838 83.1787 147.55 82.992C147.267 82.8053 146.896 82.712 146.438 82.712C146.139 82.712 145.856 82.7627 145.59 82.864C145.323 82.96 145.088 83.1173 144.886 83.336C144.688 83.5547 144.531 83.8427 144.414 84.2C144.302 84.5573 144.246 84.992 144.246 85.504L143.206 85.112C143.206 84.328 143.352 83.6373 143.646 83.04C143.939 82.4373 144.36 81.968 144.91 81.632C145.459 81.296 146.123 81.128 146.902 81.128C147.499 81.128 148 81.224 148.406 81.416C148.811 81.608 149.139 81.8613 149.39 82.176C149.646 82.4853 149.84 82.824 149.974 83.192C150.107 83.56 150.198 83.92 150.246 84.272C150.294 84.624 150.318 84.9333 150.318 85.2V90H148.622ZM142.55 90V81.36H144.046V83.856H144.246V90H142.55ZM157.345 90C156.801 90.1067 156.268 90.152 155.745 90.136C155.223 90.12 154.756 90.0187 154.345 89.832C153.935 89.6453 153.625 89.352 153.417 88.952C153.231 88.5947 153.129 88.232 153.113 87.864C153.103 87.4907 153.097 87.0693 153.097 86.6V78.96H154.777V86.52C154.777 86.8667 154.78 87.168 154.785 87.424C154.796 87.68 154.852 87.896 154.953 88.072C155.145 88.4027 155.449 88.592 155.865 88.64C156.287 88.6827 156.78 88.664 157.345 88.584V90ZM151.441 82.704V81.36H157.345V82.704H151.441ZM166.122 90.24C165.258 90.24 164.509 90.0453 163.874 89.656C163.239 89.2667 162.749 88.7307 162.402 88.048C162.061 87.36 161.89 86.568 161.89 85.672C161.89 84.7707 162.066 83.9787 162.418 83.296C162.77 82.608 163.263 82.0747 163.898 81.696C164.533 81.312 165.274 81.12 166.122 81.12C166.986 81.12 167.735 81.3147 168.37 81.704C169.005 82.0933 169.495 82.6293 169.842 83.312C170.189 83.9947 170.362 84.7813 170.362 85.672C170.362 86.5733 170.186 87.368 169.834 88.056C169.487 88.7387 168.997 89.2747 168.362 89.664C167.727 90.048 166.981 90.24 166.122 90.24ZM166.122 88.664C166.949 88.664 167.565 88.3867 167.97 87.832C168.381 87.272 168.586 86.552 168.586 85.672C168.586 84.7707 168.378 84.0507 167.962 83.512C167.551 82.968 166.938 82.696 166.122 82.696C165.562 82.696 165.101 82.824 164.738 83.08C164.375 83.3307 164.106 83.68 163.93 84.128C163.754 84.5707 163.666 85.0853 163.666 85.672C163.666 86.5787 163.874 87.304 164.29 87.848C164.706 88.392 165.317 88.664 166.122 88.664ZM172.912 90V81.056C172.912 80.8373 172.92 80.6053 172.936 80.36C172.952 80.1093 172.997 79.864 173.072 79.624C173.152 79.3787 173.283 79.1547 173.464 78.952C173.683 78.712 173.923 78.5413 174.184 78.44C174.445 78.3387 174.704 78.28 174.96 78.264C175.221 78.248 175.461 78.24 175.68 78.24H176.768V79.616H175.76C175.365 79.616 175.069 79.7147 174.872 79.912C174.68 80.104 174.584 80.3787 174.584 80.736V90H172.912ZM171.48 82.704V81.36H176.768V82.704H171.48Z" fill="#222324"/>
<rect width="121" height="40" transform="translate(21 113)" fill="#222324"/>
<ellipse cx="26.6542" cy="111" rx="3.39252" ry="3" fill="#BFE4F7"/>
<ellipse cx="26.6542" cy="117" rx="3.39252" ry="3" fill="#BFE4F7"/>
<ellipse cx="26.6542" cy="123" rx="3.39252" ry="3" fill="#BFE4F7"/>
<ellipse cx="26.6542" cy="129" rx="3.39252" ry="3" fill="#BFE4F7"/>
<ellipse cx="26.6542" cy="135" rx="3.39252" ry="3" fill="#BFE4F7"/>
<ellipse cx="26.6542" cy="141" rx="3.39252" ry="3" fill="#BFE4F7"/>
<rect width="121" height="44" transform="translate(16 105)" fill="white"/>
<path d="M29.2 135.976V133.456L36.592 126.868C37.168 126.356 37.568 125.872 37.792 125.416C38.016 124.96 38.128 124.52 38.128 124.096C38.128 123.52 38.004 123.008 37.756 122.56C37.508 122.104 37.164 121.744 36.724 121.48C36.292 121.216 35.792 121.084 35.224 121.084C34.624 121.084 34.092 121.224 33.628 121.504C33.172 121.776 32.816 122.14 32.56 122.596C32.304 123.052 32.184 123.544 32.2 124.072H29.224C29.224 122.92 29.48 121.916 29.992 121.06C30.512 120.204 31.224 119.54 32.128 119.068C33.04 118.596 34.092 118.36 35.284 118.36C36.388 118.36 37.38 118.608 38.26 119.104C39.14 119.592 39.832 120.272 40.336 121.144C40.84 122.008 41.092 123.004 41.092 124.132C41.092 124.956 40.98 125.648 40.756 126.208C40.532 126.768 40.196 127.284 39.748 127.756C39.308 128.228 38.76 128.752 38.104 129.328L32.86 133.972L32.596 133.252H41.092V135.976H29.2ZM49.7129 136.36C48.4889 136.36 47.4089 136.1 46.4729 135.58C45.5369 135.052 44.8049 134.32 44.2769 133.384C43.7569 132.448 43.4969 131.368 43.4969 130.144V124.576C43.4969 123.352 43.7569 122.272 44.2769 121.336C44.8049 120.4 45.5369 119.672 46.4729 119.152C47.4089 118.624 48.4889 118.36 49.7129 118.36C50.9369 118.36 52.0129 118.624 52.9409 119.152C53.8769 119.672 54.6089 120.4 55.1369 121.336C55.6649 122.272 55.9289 123.352 55.9289 124.576V130.144C55.9289 131.368 55.6649 132.448 55.1369 133.384C54.6089 134.32 53.8769 135.052 52.9409 135.58C52.0129 136.1 50.9369 136.36 49.7129 136.36ZM49.7129 133.612C50.3209 133.612 50.8729 133.468 51.3689 133.18C51.8649 132.884 52.2569 132.492 52.5449 132.004C52.8329 131.508 52.9769 130.956 52.9769 130.348V124.36C52.9769 123.744 52.8329 123.192 52.5449 122.704C52.2569 122.208 51.8649 121.816 51.3689 121.528C50.8729 121.232 50.3209 121.084 49.7129 121.084C49.1049 121.084 48.5529 121.232 48.0569 121.528C47.5609 121.816 47.1689 122.208 46.8809 122.704C46.5929 123.192 46.4489 123.744 46.4489 124.36V130.348C46.4489 130.956 46.5929 131.508 46.8809 132.004C47.1689 132.492 47.5609 132.884 48.0569 133.18C48.5529 133.468 49.1049 133.612 49.7129 133.612ZM61.2138 136L59.2938 134.08L74.6658 118.72L76.5858 120.652L61.2138 136ZM72.9858 136.36C72.1938 136.36 71.4698 136.168 70.8138 135.784C70.1658 135.392 69.6458 134.872 69.2538 134.224C68.8618 133.568 68.6658 132.84 68.6658 132.04C68.6658 131.256 68.8658 130.536 69.2658 129.88C69.6658 129.224 70.1938 128.7 70.8498 128.308C71.5058 127.916 72.2178 127.72 72.9858 127.72C73.7778 127.72 74.5018 127.916 75.1578 128.308C75.8138 128.692 76.3338 129.212 76.7178 129.868C77.1098 130.516 77.3058 131.24 77.3058 132.04C77.3058 132.84 77.1098 133.568 76.7178 134.224C76.3338 134.872 75.8138 135.392 75.1578 135.784C74.5018 136.168 73.7778 136.36 72.9858 136.36ZM72.9858 133.888C73.3138 133.888 73.6178 133.804 73.8978 133.636C74.1858 133.468 74.4138 133.244 74.5818 132.964C74.7498 132.684 74.8338 132.376 74.8338 132.04C74.8338 131.704 74.7498 131.396 74.5818 131.116C74.4138 130.836 74.1858 130.612 73.8978 130.444C73.6178 130.276 73.3138 130.192 72.9858 130.192C72.6498 130.192 72.3418 130.276 72.0618 130.444C71.7818 130.612 71.5538 130.836 71.3778 131.116C71.2098 131.396 71.1258 131.704 71.1258 132.04C71.1258 132.376 71.2098 132.684 71.3778 132.964C71.5538 133.244 71.7818 133.468 72.0618 133.636C72.3418 133.804 72.6498 133.888 72.9858 133.888ZM62.8938 127C62.1018 127 61.3778 126.808 60.7218 126.424C60.0658 126.032 59.5418 125.512 59.1498 124.864C58.7658 124.208 58.5738 123.48 58.5738 122.68C58.5738 121.896 58.7738 121.176 59.1738 120.52C59.5738 119.864 60.1018 119.34 60.7578 118.948C61.4138 118.556 62.1258 118.36 62.8938 118.36C63.6858 118.36 64.4058 118.556 65.0538 118.948C65.7098 119.332 66.2338 119.852 66.6258 120.508C67.0178 121.156 67.2138 121.88 67.2138 122.68C67.2138 123.48 67.0178 124.208 66.6258 124.864C66.2338 125.512 65.7098 126.032 65.0538 126.424C64.4058 126.808 63.6858 127 62.8938 127ZM62.8938 124.528C63.2298 124.528 63.5378 124.444 63.8178 124.276C64.0978 124.108 64.3218 123.884 64.4898 123.604C64.6578 123.324 64.7418 123.016 64.7418 122.68C64.7418 122.344 64.6578 122.036 64.4898 121.756C64.3218 121.476 64.0978 121.252 63.8178 121.084C63.5378 120.916 63.2298 120.832 62.8938 120.832C62.5578 120.832 62.2498 120.916 61.9698 121.084C61.6898 121.252 61.4658 121.476 61.2978 121.756C61.1298 122.036 61.0458 122.344 61.0458 122.68C61.0458 123.016 61.1298 123.324 61.2978 123.604C61.4658 123.884 61.6898 124.108 61.9698 124.276C62.2498 124.444 62.5578 124.528 62.8938 124.528ZM91.5758 136.36C89.8478 136.36 88.3678 135.984 87.1358 135.232C85.9038 134.472 84.9558 133.416 84.2918 132.064C83.6358 130.712 83.3078 129.144 83.3078 127.36C83.3078 125.576 83.6358 124.008 84.2918 122.656C84.9558 121.304 85.9038 120.252 87.1358 119.5C88.3678 118.74 89.8478 118.36 91.5758 118.36C93.3038 118.36 94.7838 118.74 96.0158 119.5C97.2558 120.252 98.2038 121.304 98.8598 122.656C99.5238 124.008 99.8558 125.576 99.8558 127.36C99.8558 129.144 99.5238 130.712 98.8598 132.064C98.2038 133.416 97.2558 134.472 96.0158 135.232C94.7838 135.984 93.3038 136.36 91.5758 136.36ZM91.5758 133.636C92.7358 133.644 93.6998 133.388 94.4678 132.868C95.2438 132.348 95.8238 131.616 96.2078 130.672C96.5998 129.728 96.7958 128.624 96.7958 127.36C96.7958 126.096 96.5998 125 96.2078 124.072C95.8238 123.136 95.2438 122.408 94.4678 121.888C93.6998 121.368 92.7358 121.1 91.5758 121.084C90.4158 121.076 89.4518 121.332 88.6838 121.852C87.9158 122.372 87.3358 123.104 86.9438 124.048C86.5598 124.992 86.3678 126.096 86.3678 127.36C86.3678 128.624 86.5598 129.724 86.9438 130.66C87.3278 131.588 87.9038 132.312 88.6718 132.832C89.4478 133.352 90.4158 133.62 91.5758 133.636ZM101.764 136V118.72H112.168V121.612H104.656V125.92H110.728V128.8H104.656V136H101.764ZM113.847 136V118.72H124.251V121.612H116.739V125.92H122.811V128.8H116.739V136H113.847Z" fill="#222324"/>
<rect width="342" height="64" transform="translate(0 169)" fill="#7547F7"/>
<rect x="17" y="185" width="128" height="32" rx="4" fill="white"/>
<path d="M34.187 206.21C33.179 206.21 32.3203 205.991 31.611 205.552C30.9017 205.109 30.358 204.493 29.98 203.704C29.6067 202.915 29.42 202.001 29.42 200.96C29.42 199.919 29.6067 199.005 29.98 198.216C30.358 197.427 30.9017 196.814 31.611 196.375C32.3203 195.932 33.179 195.71 34.187 195.71C35.349 195.71 36.3103 196.004 37.071 196.592C37.8363 197.18 38.3683 197.971 38.667 198.965L37.183 199.364C36.987 198.659 36.637 198.106 36.133 197.705C35.6337 197.304 34.985 197.103 34.187 197.103C33.473 197.103 32.878 197.264 32.402 197.586C31.926 197.908 31.5667 198.358 31.324 198.937C31.086 199.516 30.967 200.19 30.967 200.96C30.9623 201.73 31.079 202.404 31.317 202.983C31.5597 203.562 31.919 204.012 32.395 204.334C32.8757 204.656 33.473 204.817 34.187 204.817C34.985 204.817 35.6337 204.616 36.133 204.215C36.637 203.809 36.987 203.256 37.183 202.556L38.667 202.955C38.3683 203.949 37.8363 204.74 37.071 205.328C36.3103 205.916 35.349 206.21 34.187 206.21ZM40.2066 206V198.44H41.5086V200.274L41.3266 200.036C41.4199 199.793 41.5412 199.572 41.6906 199.371C41.8399 199.166 42.0126 198.998 42.2086 198.867C42.3999 198.727 42.6122 198.62 42.8456 198.545C43.0836 198.466 43.3262 198.419 43.5736 198.405C43.8209 198.386 44.0589 198.398 44.2876 198.44V199.812C44.0402 199.747 43.7649 199.728 43.4616 199.756C43.1629 199.784 42.8876 199.88 42.6356 200.043C42.3976 200.197 42.2086 200.384 42.0686 200.603C41.9332 200.822 41.8352 201.067 41.7746 201.338C41.7139 201.604 41.6836 201.886 41.6836 202.185V206H40.2066ZM48.8369 206.21C48.0856 206.21 47.4252 206.047 46.8559 205.72C46.2912 205.389 45.8502 204.929 45.5329 204.341C45.2202 203.748 45.0639 203.062 45.0639 202.283C45.0639 201.457 45.2179 200.741 45.5259 200.134C45.8386 199.527 46.2726 199.058 46.8279 198.727C47.3832 198.396 48.0296 198.23 48.7669 198.23C49.5369 198.23 50.1926 198.41 50.7339 198.769C51.2752 199.124 51.6789 199.63 51.9449 200.288C52.2156 200.946 52.3229 201.728 52.2669 202.633H50.8039V202.101C50.7946 201.224 50.6266 200.575 50.2999 200.155C49.9779 199.735 49.4856 199.525 48.8229 199.525C48.0902 199.525 47.5396 199.756 47.1709 200.218C46.8022 200.68 46.6179 201.347 46.6179 202.22C46.6179 203.051 46.8022 203.695 47.1709 204.152C47.5396 204.605 48.0716 204.831 48.7669 204.831C49.2242 204.831 49.6186 204.728 49.9499 204.523C50.2859 204.313 50.5472 204.014 50.7339 203.627L52.1689 204.082C51.8749 204.759 51.4292 205.284 50.8319 205.657C50.2346 206.026 49.5696 206.21 48.8369 206.21ZM46.1419 202.633V201.492H51.5389V202.633H46.1419ZM55.8357 206.21C55.2757 206.21 54.8067 206.107 54.4287 205.902C54.0507 205.692 53.7637 205.417 53.5677 205.076C53.3764 204.731 53.2807 204.353 53.2807 203.942C53.2807 203.559 53.3484 203.223 53.4837 202.934C53.619 202.645 53.8197 202.4 54.0857 202.199C54.3517 201.994 54.6784 201.828 55.0657 201.702C55.4017 201.604 55.782 201.518 56.2067 201.443C56.6314 201.368 57.077 201.298 57.5437 201.233C58.015 201.168 58.4817 201.102 58.9437 201.037L58.4117 201.331C58.421 200.738 58.295 200.3 58.0337 200.015C57.777 199.726 57.3337 199.581 56.7037 199.581C56.307 199.581 55.943 199.674 55.6117 199.861C55.2804 200.043 55.0494 200.346 54.9187 200.771L53.5537 200.351C53.7404 199.702 54.095 199.187 54.6177 198.804C55.145 198.421 55.845 198.23 56.7177 198.23C57.3944 198.23 57.9824 198.347 58.4817 198.58C58.9857 198.809 59.3544 199.173 59.5877 199.672C59.709 199.919 59.7837 200.181 59.8117 200.456C59.8397 200.731 59.8537 201.028 59.8537 201.345V206H58.5587V204.271L58.8107 204.495C58.498 205.074 58.099 205.505 57.6137 205.79C57.133 206.07 56.5404 206.21 55.8357 206.21ZM56.0947 205.013C56.51 205.013 56.867 204.941 57.1657 204.796C57.4644 204.647 57.7047 204.458 57.8867 204.229C58.0687 204 58.1877 203.762 58.2437 203.515C58.323 203.291 58.3674 203.039 58.3767 202.759C58.3907 202.479 58.3977 202.255 58.3977 202.087L58.8737 202.262C58.4117 202.332 57.9917 202.395 57.6137 202.451C57.2357 202.507 56.8927 202.563 56.5847 202.619C56.2814 202.67 56.0107 202.733 55.7727 202.808C55.572 202.878 55.3924 202.962 55.2337 203.06C55.0797 203.158 54.956 203.277 54.8627 203.417C54.774 203.557 54.7297 203.727 54.7297 203.928C54.7297 204.124 54.7787 204.306 54.8767 204.474C54.9747 204.637 55.124 204.768 55.3247 204.866C55.5254 204.964 55.782 205.013 56.0947 205.013ZM65.9974 206C65.5214 206.093 65.0547 206.133 64.5974 206.119C64.1401 206.105 63.7317 206.016 63.3724 205.853C63.0131 205.69 62.7424 205.433 62.5604 205.083C62.3971 204.77 62.3084 204.453 62.2944 204.131C62.2851 203.804 62.2804 203.436 62.2804 203.025V196.34H63.7504V202.955C63.7504 203.258 63.7527 203.522 63.7574 203.746C63.7667 203.97 63.8157 204.159 63.9044 204.313C64.0724 204.602 64.3384 204.768 64.7024 204.81C65.0711 204.847 65.5027 204.831 65.9974 204.761V206ZM60.8314 199.616V198.44H65.9974V199.616H60.8314ZM70.6025 206.21C69.8512 206.21 69.1909 206.047 68.6215 205.72C68.0569 205.389 67.6159 204.929 67.2985 204.341C66.9859 203.748 66.8295 203.062 66.8295 202.283C66.8295 201.457 66.9835 200.741 67.2915 200.134C67.6042 199.527 68.0382 199.058 68.5935 198.727C69.1489 198.396 69.7952 198.23 70.5325 198.23C71.3025 198.23 71.9582 198.41 72.4995 198.769C73.0409 199.124 73.4445 199.63 73.7105 200.288C73.9812 200.946 74.0885 201.728 74.0325 202.633H72.5695V202.101C72.5602 201.224 72.3922 200.575 72.0655 200.155C71.7435 199.735 71.2512 199.525 70.5885 199.525C69.8559 199.525 69.3052 199.756 68.9365 200.218C68.5679 200.68 68.3835 201.347 68.3835 202.22C68.3835 203.051 68.5679 203.695 68.9365 204.152C69.3052 204.605 69.8372 204.831 70.5325 204.831C70.9899 204.831 71.3842 204.728 71.7155 204.523C72.0515 204.313 72.3129 204.014 72.4995 203.627L73.9345 204.082C73.6405 204.759 73.1949 205.284 72.5975 205.657C72.0002 206.026 71.3352 206.21 70.6025 206.21ZM67.9075 202.633V201.492H73.3045V202.633H67.9075ZM80.5408 206.21C79.9808 206.21 79.5118 206.107 79.1338 205.902C78.7558 205.692 78.4688 205.417 78.2728 205.076C78.0814 204.731 77.9858 204.353 77.9858 203.942C77.9858 203.559 78.0534 203.223 78.1888 202.934C78.3241 202.645 78.5248 202.4 78.7908 202.199C79.0568 201.994 79.3834 201.828 79.7708 201.702C80.1068 201.604 80.4871 201.518 80.9118 201.443C81.3364 201.368 81.7821 201.298 82.2488 201.233C82.7201 201.168 83.1868 201.102 83.6488 201.037L83.1168 201.331C83.1261 200.738 83.0001 200.3 82.7388 200.015C82.4821 199.726 82.0388 199.581 81.4088 199.581C81.0121 199.581 80.6481 199.674 80.3168 199.861C79.9854 200.043 79.7544 200.346 79.6238 200.771L78.2588 200.351C78.4454 199.702 78.8001 199.187 79.3228 198.804C79.8501 198.421 80.5501 198.23 81.4228 198.23C82.0994 198.23 82.6874 198.347 83.1868 198.58C83.6908 198.809 84.0594 199.173 84.2928 199.672C84.4141 199.919 84.4888 200.181 84.5168 200.456C84.5448 200.731 84.5588 201.028 84.5588 201.345V206H83.2638V204.271L83.5158 204.495C83.2031 205.074 82.8041 205.505 82.3188 205.79C81.8381 206.07 81.2454 206.21 80.5408 206.21ZM80.7998 205.013C81.2151 205.013 81.5721 204.941 81.8708 204.796C82.1694 204.647 82.4098 204.458 82.5918 204.229C82.7738 204 82.8928 203.762 82.9488 203.515C83.0281 203.291 83.0724 203.039 83.0818 202.759C83.0958 202.479 83.1028 202.255 83.1028 202.087L83.5788 202.262C83.1168 202.332 82.6968 202.395 82.3188 202.451C81.9408 202.507 81.5978 202.563 81.2898 202.619C80.9864 202.67 80.7158 202.733 80.4778 202.808C80.2771 202.878 80.0974 202.962 79.9388 203.06C79.7848 203.158 79.6611 203.277 79.5678 203.417C79.4791 203.557 79.4348 203.727 79.4348 203.928C79.4348 204.124 79.4838 204.306 79.5818 204.474C79.6798 204.637 79.8291 204.768 80.0298 204.866C80.2304 204.964 80.4871 205.013 80.7998 205.013ZM89.6105 206.21C88.8358 206.21 88.1778 206.037 87.6365 205.692C87.0952 205.347 86.6798 204.873 86.3905 204.271C86.1058 203.669 85.9612 202.985 85.9565 202.22C85.9612 201.441 86.1105 200.752 86.4045 200.155C86.6985 199.553 87.1185 199.082 87.6645 198.741C88.2105 198.4 88.8662 198.23 89.6315 198.23C90.4575 198.23 91.1622 198.435 91.7455 198.846C92.3335 199.257 92.7208 199.819 92.9075 200.533L91.4515 200.953C91.3068 200.528 91.0688 200.199 90.7375 199.966C90.4108 199.728 90.0352 199.609 89.6105 199.609C89.1298 199.609 88.7355 199.723 88.4275 199.952C88.1195 200.176 87.8908 200.484 87.7415 200.876C87.5922 201.268 87.5152 201.716 87.5105 202.22C87.5152 202.999 87.6925 203.629 88.0425 204.11C88.3972 204.591 88.9198 204.831 89.6105 204.831C90.0818 204.831 90.4622 204.724 90.7515 204.509C91.0455 204.29 91.2695 203.977 91.4235 203.571L92.9075 203.921C92.6602 204.658 92.2518 205.225 91.6825 205.622C91.1132 206.014 90.4225 206.21 89.6105 206.21ZM97.3624 206.21C96.5878 206.21 95.9298 206.037 95.3884 205.692C94.8471 205.347 94.4318 204.873 94.1424 204.271C93.8578 203.669 93.7131 202.985 93.7084 202.22C93.7131 201.441 93.8624 200.752 94.1564 200.155C94.4504 199.553 94.8704 199.082 95.4164 198.741C95.9624 198.4 96.6181 198.23 97.3834 198.23C98.2094 198.23 98.9141 198.435 99.4974 198.846C100.085 199.257 100.473 199.819 100.659 200.533L99.2034 200.953C99.0588 200.528 98.8208 200.199 98.4894 199.966C98.1628 199.728 97.7871 199.609 97.3624 199.609C96.8818 199.609 96.4874 199.723 96.1794 199.952C95.8714 200.176 95.6428 200.484 95.4934 200.876C95.3441 201.268 95.2671 201.716 95.2624 202.22C95.2671 202.999 95.4444 203.629 95.7944 204.11C96.1491 204.591 96.6718 204.831 97.3624 204.831C97.8338 204.831 98.2141 204.724 98.5034 204.509C98.7974 204.29 99.0214 203.977 99.1754 203.571L100.659 203.921C100.412 204.658 100.004 205.225 99.4344 205.622C98.8651 206.014 98.1744 206.21 97.3624 206.21ZM105.163 206.21C104.407 206.21 103.752 206.04 103.196 205.699C102.641 205.358 102.212 204.889 101.908 204.292C101.61 203.69 101.46 202.997 101.46 202.213C101.46 201.424 101.614 200.731 101.922 200.134C102.23 199.532 102.662 199.065 103.217 198.734C103.773 198.398 104.421 198.23 105.163 198.23C105.919 198.23 106.575 198.4 107.13 198.741C107.686 199.082 108.115 199.551 108.418 200.148C108.722 200.745 108.873 201.434 108.873 202.213C108.873 203.002 108.719 203.697 108.411 204.299C108.108 204.896 107.679 205.365 107.123 205.706C106.568 206.042 105.915 206.21 105.163 206.21ZM105.163 204.831C105.887 204.831 106.426 204.588 106.78 204.103C107.14 203.613 107.319 202.983 107.319 202.213C107.319 201.424 107.137 200.794 106.773 200.323C106.414 199.847 105.877 199.609 105.163 199.609C104.673 199.609 104.27 199.721 103.952 199.945C103.635 200.164 103.399 200.47 103.245 200.862C103.091 201.249 103.014 201.7 103.014 202.213C103.014 203.006 103.196 203.641 103.56 204.117C103.924 204.593 104.459 204.831 105.163 204.831ZM113.261 206.203C112.738 206.203 112.299 206.119 111.945 205.951C111.59 205.783 111.301 205.564 111.077 205.293C110.857 205.018 110.689 204.719 110.573 204.397C110.456 204.075 110.377 203.76 110.335 203.452C110.293 203.144 110.272 202.873 110.272 202.64V198.44H111.756V202.157C111.756 202.451 111.779 202.754 111.826 203.067C111.877 203.375 111.97 203.662 112.106 203.928C112.246 204.194 112.439 204.409 112.687 204.572C112.939 204.735 113.265 204.817 113.667 204.817C113.928 204.817 114.175 204.775 114.409 204.691C114.642 204.602 114.845 204.462 115.018 204.271C115.195 204.08 115.333 203.828 115.431 203.515C115.533 203.202 115.585 202.822 115.585 202.374L116.495 202.717C116.495 203.403 116.366 204.01 116.11 204.537C115.853 205.06 115.484 205.468 115.004 205.762C114.523 206.056 113.942 206.203 113.261 206.203ZM115.76 206V203.816H115.585V198.44H117.062V206H115.76ZM124.331 206V202.283C124.331 201.989 124.305 201.688 124.254 201.38C124.207 201.067 124.114 200.778 123.974 200.512C123.839 200.246 123.645 200.031 123.393 199.868C123.146 199.705 122.821 199.623 122.42 199.623C122.159 199.623 121.911 199.667 121.678 199.756C121.445 199.84 121.239 199.978 121.062 200.169C120.889 200.36 120.752 200.612 120.649 200.925C120.551 201.238 120.502 201.618 120.502 202.066L119.592 201.723C119.592 201.037 119.72 200.433 119.977 199.91C120.234 199.383 120.602 198.972 121.083 198.678C121.564 198.384 122.145 198.237 122.826 198.237C123.349 198.237 123.787 198.321 124.142 198.489C124.497 198.657 124.784 198.879 125.003 199.154C125.227 199.425 125.397 199.721 125.514 200.043C125.631 200.365 125.71 200.68 125.752 200.988C125.794 201.296 125.815 201.567 125.815 201.8V206H124.331ZM119.018 206V198.44H120.327V200.624H120.502V206H119.018ZM131.964 206C131.488 206.093 131.022 206.133 130.564 206.119C130.107 206.105 129.699 206.016 129.339 205.853C128.98 205.69 128.709 205.433 128.527 205.083C128.364 204.77 128.275 204.453 128.261 204.131C128.252 203.804 128.247 203.436 128.247 203.025V196.34H129.717V202.955C129.717 203.258 129.72 203.522 129.724 203.746C129.734 203.97 129.783 204.159 129.871 204.313C130.039 204.602 130.305 204.768 130.669 204.81C131.038 204.847 131.47 204.831 131.964 204.761V206ZM126.798 199.616V198.44H131.964V199.616H126.798Z" fill="#2E52EF"/>
<g clip-path="url(#clip1_19099_25153)">
<path d="M199.632 154.677L198.332 149.551C196.028 148.575 193.67 147.729 191.271 147.018L191.107 149.4L190.442 146.776C187.466 145.925 185.442 145.551 185.442 145.551C185.442 145.551 188.175 155.949 193.911 163.899L200.594 165.073L195.403 165.821C196.124 166.689 196.899 167.511 197.724 168.282C206.067 176.027 215.36 179.58 218.48 176.218C221.6 172.857 217.366 163.854 209.023 156.111C206.436 153.71 203.187 151.783 199.935 150.266L199.632 154.677Z" fill="#F2F2F2"/>
<path d="M211.991 149.107L213.528 144.048C212.06 142.021 210.479 140.078 208.793 138.229L207.421 140.184L208.208 137.593C206.1 135.328 204.561 133.961 204.561 133.961C204.561 133.961 201.527 144.276 202.327 154.046L207.441 158.505L202.609 156.462C202.778 157.578 203.017 158.683 203.325 159.769C206.464 170.711 212.583 178.557 216.991 177.292C221.399 176.027 222.428 166.132 219.289 155.19C218.316 151.797 216.53 148.469 214.53 145.489L211.991 149.107Z" fill="#F2F2F2"/>
<path d="M288.407 65.0613H287.596V42.8537C287.596 41.1657 287.264 39.4943 286.618 37.9348C285.972 36.3753 285.025 34.9583 283.832 33.7648C282.638 32.5712 281.221 31.6244 279.662 30.9784C278.102 30.3325 276.431 30 274.743 30H227.691C224.282 30 221.013 31.3542 218.602 33.7648C216.192 36.1753 214.838 39.4447 214.838 42.8537V164.688C214.838 166.376 215.17 168.048 215.816 169.607C216.462 171.167 217.409 172.584 218.602 173.777C219.796 174.971 221.213 175.918 222.772 176.564C224.332 177.21 226.003 177.542 227.691 177.542H274.743C278.152 177.542 281.421 176.188 283.831 173.777C286.242 171.367 287.596 168.097 287.596 164.688V80.8691H288.407L288.407 65.0613Z" fill="#E6E6E6"/>
<path d="M275.261 33.3438H269.12C269.403 34.0362 269.51 34.7876 269.434 35.5316C269.358 36.2755 269.1 36.9893 268.682 37.61C268.265 38.2307 267.702 38.7393 267.042 39.0909C266.382 39.4426 265.645 39.6265 264.897 39.6265H237.942C237.194 39.6264 236.458 39.4425 235.798 39.0908C235.138 38.7391 234.574 38.2306 234.157 37.6099C233.74 36.9892 233.482 36.2754 233.406 35.5315C233.329 34.7875 233.437 34.0362 233.72 33.3438H227.983C225.438 33.3438 222.996 34.3551 221.196 36.1552C219.396 37.9554 218.384 40.3969 218.384 42.9428V164.601C218.384 167.146 219.396 169.588 221.196 171.388C222.996 173.188 225.438 174.2 227.983 174.2H275.261C277.807 174.2 280.249 173.188 282.049 171.388C283.849 169.588 284.86 167.146 284.86 164.601V42.9426C284.86 40.3968 283.849 37.9553 282.049 36.1552C280.249 34.355 277.807 33.3437 275.261 33.3438Z" fill="white"/>
<path d="M245.598 81.8049C245.598 80.9545 245.821 80.1191 246.247 79.3827C246.672 78.6464 247.284 78.035 248.021 77.6102C247.284 77.185 246.449 76.961 245.599 76.9609C244.748 76.9608 243.913 77.1846 243.177 77.6097C242.44 78.0348 241.829 78.6463 241.403 79.3826C240.978 80.119 240.754 80.9543 240.754 81.8046C240.754 82.6549 240.978 83.4902 241.403 84.2266C241.829 84.963 242.44 85.5744 243.177 85.9995C243.913 86.4246 244.748 86.6484 245.599 86.6483C246.449 86.6482 247.284 86.4243 248.021 85.999C247.284 85.5743 246.672 84.9631 246.247 84.2268C245.821 83.4905 245.598 82.6552 245.598 81.8049Z" fill="#CCCCCC"/>
<path d="M251.688 81.8049C251.688 80.9545 251.911 80.1191 252.337 79.3827C252.762 78.6463 253.374 78.035 254.111 77.6102C253.374 77.185 252.539 76.961 251.689 76.9609C250.838 76.9608 250.003 77.1846 249.267 77.6097C248.53 78.0348 247.919 78.6463 247.494 79.3826C247.068 80.119 246.844 80.9543 246.844 81.8046C246.844 82.6549 247.068 83.4902 247.494 84.2266C247.919 84.963 248.53 85.5744 249.267 85.9995C250.003 86.4246 250.838 86.6484 251.689 86.6483C252.539 86.6482 253.374 86.4243 254.111 85.999C253.374 85.5743 252.762 84.9631 252.337 84.2268C251.912 83.4905 251.688 82.6552 251.688 81.8049Z" fill="#CCCCCC"/>
<path d="M257.638 86.6483C260.313 86.6483 262.482 84.4797 262.482 81.8046C262.482 79.1295 260.313 76.9609 257.638 76.9609C254.963 76.9609 252.794 79.1295 252.794 81.8046C252.794 84.4797 254.963 86.6483 257.638 86.6483Z" fill="#6C63FF"/>
<path d="M265.733 96.9332H237.503C237.234 96.9329 236.976 96.826 236.786 96.636C236.596 96.4459 236.49 96.1883 236.489 95.9195V67.6895C236.49 67.4207 236.596 67.1631 236.786 66.973C236.976 66.783 237.234 66.6761 237.503 66.6758H265.733C266.002 66.6761 266.259 66.783 266.449 66.973C266.639 67.1631 266.746 67.4207 266.747 67.6895V95.9195C266.746 96.1883 266.639 96.4459 266.449 96.636C266.259 96.826 266.002 96.9329 265.733 96.9332ZM237.503 67.0815C237.342 67.0817 237.187 67.1458 237.073 67.2598C236.959 67.3738 236.895 67.5284 236.895 67.6897V95.9197C236.895 96.081 236.959 96.2356 237.073 96.3496C237.187 96.4636 237.342 96.5277 237.503 96.5279H265.733C265.894 96.5277 266.049 96.4636 266.163 96.3496C266.277 96.2356 266.341 96.081 266.341 95.9197V67.6897C266.341 67.5284 266.277 67.3738 266.163 67.2598C266.049 67.1458 265.894 67.0817 265.733 67.0815H237.503Z" fill="#CCCCCC"/>
<path d="M272.036 118.574H228.74V118.98H272.036V118.574Z" fill="#CCCCCC"/>
<path d="M230.107 116.043C230.862 116.043 231.474 115.431 231.474 114.676C231.474 113.921 230.862 113.309 230.107 113.309C229.352 113.309 228.74 113.921 228.74 114.676C228.74 115.431 229.352 116.043 230.107 116.043Z" fill="#6C63FF"/>
<path d="M272.036 132.246H228.74V132.652H272.036V132.246Z" fill="#CCCCCC"/>
<path d="M230.107 129.715C230.862 129.715 231.474 129.103 231.474 128.348C231.474 127.593 230.862 126.98 230.107 126.98C229.352 126.98 228.74 127.593 228.74 128.348C228.74 129.103 229.352 129.715 230.107 129.715Z" fill="#6C63FF"/>
<path d="M271.244 147.817H257.561C257.325 147.817 257.098 147.723 256.931 147.556C256.764 147.388 256.67 147.162 256.67 146.925V142.13C256.67 141.893 256.764 141.667 256.931 141.5C257.098 141.333 257.325 141.239 257.561 141.238H271.244C271.48 141.239 271.707 141.333 271.874 141.5C272.041 141.667 272.135 141.893 272.135 142.13V146.925C272.135 147.162 272.041 147.388 271.874 147.556C271.707 147.723 271.48 147.817 271.244 147.817Z" fill="#6C63FF"/>
<path d="M234.568 116.043C235.323 116.043 235.935 115.431 235.935 114.676C235.935 113.921 235.323 113.309 234.568 113.309C233.813 113.309 233.2 113.921 233.2 114.676C233.2 115.431 233.813 116.043 234.568 116.043Z" fill="#6C63FF"/>
<path d="M239.027 116.043C239.782 116.043 240.395 115.431 240.395 114.676C240.395 113.921 239.782 113.309 239.027 113.309C238.272 113.309 237.66 113.921 237.66 114.676C237.66 115.431 238.272 116.043 239.027 116.043Z" fill="#6C63FF"/>
<path d="M234.568 129.715C235.323 129.715 235.935 129.103 235.935 128.348C235.935 127.593 235.323 126.98 234.568 126.98C233.813 126.98 233.2 127.593 233.2 128.348C233.2 129.103 233.813 129.715 234.568 129.715Z" fill="#6C63FF"/>
<path d="M239.027 129.715C239.782 129.715 240.395 129.103 240.395 128.348C240.395 127.593 239.782 126.98 239.027 126.98C238.272 126.98 237.66 127.593 237.66 128.348C237.66 129.103 238.272 129.715 239.027 129.715Z" fill="#6C63FF"/>
<path d="M332.449 177.998H190.212C189.908 177.998 189.661 177.89 189.661 177.757C189.661 177.624 189.908 177.516 190.212 177.516H332.449C332.753 177.516 333 177.624 333 177.757C333 177.89 332.753 177.998 332.449 177.998Z" fill="#3F3D56"/>
<path d="M297.308 126.964C297.405 127.008 297.498 127.06 297.587 127.12L306.473 123.327L306.79 120.987L310.34 120.965L310.13 126.333L298.402 129.435C298.378 129.516 298.348 129.596 298.314 129.674C298.144 130.036 297.872 130.339 297.53 130.547C297.188 130.754 296.793 130.856 296.394 130.839C295.995 130.823 295.609 130.689 295.286 130.454C294.963 130.219 294.716 129.894 294.577 129.519C294.438 129.145 294.413 128.737 294.504 128.348C294.596 127.96 294.801 127.606 295.092 127.333C295.384 127.06 295.75 126.88 296.144 126.814C296.538 126.748 296.943 126.8 297.308 126.964Z" fill="#FFB8B8"/>
<path d="M311.631 175.61H309.202L308.047 166.242L311.631 166.242L311.631 175.61Z" fill="#FFB8B8"/>
<path d="M307.467 174.918H312.151V177.867H304.518C304.518 177.085 304.828 176.335 305.381 175.782C305.935 175.229 306.685 174.918 307.467 174.918Z" fill="#2F2E41"/>
<path d="M321.076 174.924L318.659 175.163L316.591 165.953L320.158 165.602L321.076 174.924Z" fill="#FFB8B8"/>
<path d="M316.865 174.641L321.526 174.181L321.815 177.116L314.219 177.865C314.181 177.479 314.219 177.09 314.332 176.719C314.444 176.349 314.628 176.004 314.874 175.705C315.12 175.405 315.422 175.157 315.764 174.975C316.105 174.792 316.479 174.679 316.865 174.641Z" fill="#2F2E41"/>
<path d="M312.306 111.052C314.993 111.052 317.172 108.873 317.172 106.186C317.172 103.499 314.993 101.32 312.306 101.32C309.619 101.32 307.441 103.499 307.441 106.186C307.441 108.873 309.619 111.052 312.306 111.052Z" fill="#FFB8B8"/>
<path d="M308.66 173.715C308.451 173.715 308.249 173.642 308.089 173.508C307.929 173.374 307.821 173.188 307.785 172.982C306.528 166.004 302.419 143.186 302.321 142.554C302.318 142.54 302.317 142.525 302.317 142.51V140.809C302.317 140.747 302.337 140.686 302.373 140.636L302.916 139.876C302.941 139.839 302.975 139.809 303.015 139.788C303.054 139.766 303.097 139.754 303.142 139.752C306.237 139.607 316.372 139.182 316.862 139.793C317.354 140.408 317.18 142.271 317.14 142.638L317.142 142.677L321.696 171.797C321.731 172.029 321.674 172.266 321.536 172.457C321.399 172.647 321.192 172.775 320.96 172.814L318.116 173.283C317.904 173.317 317.687 173.274 317.504 173.161C317.322 173.049 317.185 172.875 317.12 172.67C316.241 169.859 313.291 160.404 312.269 156.745C312.262 156.722 312.248 156.702 312.228 156.689C312.208 156.676 312.183 156.67 312.16 156.673C312.136 156.677 312.114 156.689 312.098 156.707C312.083 156.725 312.074 156.749 312.075 156.773C312.126 160.26 312.249 169.159 312.292 172.232L312.296 172.563C312.298 172.787 312.216 173.004 312.066 173.17C311.916 173.337 311.709 173.441 311.485 173.462L308.743 173.711C308.715 173.713 308.687 173.715 308.66 173.715Z" fill="#2F2E41"/>
<path d="M309.219 112.968C308.37 113.473 307.862 114.401 307.57 115.345C307.03 117.092 306.705 118.899 306.602 120.725L306.294 126.193L302.48 140.688C305.786 143.485 307.693 142.85 312.143 140.562C316.594 138.273 317.102 141.324 317.102 141.324L317.992 128.991L319.264 115.513C318.978 115.169 318.655 114.859 318.301 114.587C317.125 113.673 315.758 113.038 314.302 112.729C312.845 112.421 311.338 112.447 309.893 112.805L309.219 112.968Z" fill="#6C63FF"/>
<path d="M307.98 129.894C308.083 129.933 308.182 129.979 308.277 130.033L317.063 125.636L317.209 123.254L320.833 123.004L321.027 128.434L309.286 132.317C309.19 132.728 308.972 133.101 308.659 133.385C308.346 133.668 307.955 133.85 307.536 133.906C307.118 133.962 306.692 133.889 306.316 133.697C305.94 133.505 305.631 133.203 305.431 132.832C305.231 132.46 305.148 132.036 305.195 131.617C305.241 131.197 305.414 130.801 305.691 130.482C305.968 130.163 306.335 129.936 306.744 129.831C307.153 129.726 307.584 129.748 307.98 129.894Z" fill="#FFB8B8"/>
<path d="M319.201 115.571C321.362 116.334 321.743 124.599 321.743 124.599C319.2 123.201 316.148 125.489 316.148 125.489C316.148 125.489 315.512 123.328 314.75 120.53C314.519 119.744 314.492 118.911 314.669 118.111C314.847 117.311 315.225 116.568 315.767 115.953C315.767 115.953 317.039 114.808 319.201 115.571Z" fill="#6C63FF"/>
<path d="M316.669 107.473C316.063 106.988 315.236 107.87 315.236 107.87L314.751 103.505C314.751 103.505 311.72 103.868 309.78 103.383C307.84 102.899 307.537 105.142 307.537 105.142C307.437 104.236 307.416 103.323 307.476 102.414C307.597 101.322 309.173 100.231 311.962 99.5035C314.751 98.776 316.206 101.929 316.206 101.929C318.146 102.898 317.275 107.958 316.669 107.473Z" fill="#2F2E41"/>
</g>
</g>
<defs>
<clipPath id="clip0_19099_25153">
<rect width="342" height="233" rx="8" fill="white"/>
</clipPath>
<clipPath id="clip1_19099_25153">
<rect width="147.558" height="148" fill="white" transform="translate(185.442 30)"/>
</clipPath>
</defs>
</svg>
